<svg xmlns="http://www.w3.org/2000/svg" width="1920" height="1080"><path d="M768,1270L380,1280L1155,1299Z" fill="#8e89a1" stroke="#8e89a1" stroke-width="1.51"/><path d="M380,1280L25,1306L1155,1299Z" fill="#8e6f7e" stroke="#8e6f7e" stroke-width="1.51"/><path d="M1151,-200L1359,-184L1476,-190Z" fill="#a5767d" stroke="#a5767d" stroke-width="1.51"/><path d="M1475,1274L1155,1299L1573,1288Z" fill="#5a7fa7" stroke="#5a7fa7" stroke-width="1.51"/><path d="M373,-223L919,-208L1715,-226Z" fill="#b88083" stroke="#b88083" stroke-width="1.51"/><path d="M1151,-200L1476,-190L1715,-226Z" fill="#946d79" stroke="#946d79" stroke-width="1.51"/><path d="M919,-208L1151,-200L1715,-226Z" fill="#a6777e" stroke="#a6777e" stroke-width="1.51"/><path d="M2013,632L2024,783L2062,613Z" fill="#7e95bc" stroke="#7e95bc" stroke-width="1.51"/><path d="M1715,-226L1940,-171L2072,-170Z" fill="#714264" stroke="#714264" stroke-width="1.51"/><path d="M1975,1224L1836,1234L2108,1236Z" fill="#185493" stroke="#185493" stroke-width="1.51"/><path d="M1836,1234L1573,1288L2108,1236Z" fill="#215d9a" stroke="#215d9a" stroke-width="1.51"/><path d="M2077,1128L2108,1236L2131,892Z" fill="#215b94" stroke="#215b94" stroke-width="1.51"/><path d="M2079,1006L2077,1128L2131,892Z" fill="#2a679b" stroke="#2a679b" stroke-width="1.51"/><path d="M2024,783L2131,892L2132,809Z" fill="#5b80a9" stroke="#5b80a9" stroke-width="1.51"/><path d="M2062,613L2024,783L2132,809Z" fill="#708cb2" stroke="#708cb2" stroke-width="1.51"/><path d="M2124,509L2062,613L2132,809Z" fill="#7c8eb0" stroke="#7c8eb0" stroke-width="1.51"/><path d="M2096,44L2075,166L2140,431Z" fill="#8f6b7a" stroke="#8f6b7a" stroke-width="1.51"/><path d="M2075,166L2079,309L2140,431Z" fill="#917a8c" stroke="#917a8c" stroke-width="1.51"/><path d="M1980,444L2124,509L2140,431Z" fill="#8f90ac" stroke="#8f90ac" stroke-width="1.51"/><path d="M2079,309L1980,444L2140,431Z" fill="#928ca4" stroke="#928ca4" stroke-width="1.51"/><path d="M2110,-78L2096,44L2140,431Z" fill="#88596a" stroke="#88596a" stroke-width="1.51"/><path d="M2124,509L2132,809L2140,431Z" fill="#828ead" stroke="#828ead" stroke-width="1.51"/><path d="M1979,-24L2096,44L2110,-78Z" fill="#82445d" stroke="#82445d" stroke-width="1.51"/><path d="M1944,939L2079,1006L2131,892Z" fill="#4076a7" stroke="#4076a7" stroke-width="1.51"/><path d="M2024,783L1944,939L2131,892Z" fill="#5583b1" stroke="#5583b1" stroke-width="1.51"/><path d="M2003,1055L2077,1128L2079,1006Z" fill="#27649e" stroke="#27649e" stroke-width="1.51"/><path d="M1949,571L2062,613L2124,509Z" fill="#8b9abc" stroke="#8b9abc" stroke-width="1.51"/><path d="M1980,444L1949,571L2124,509Z" fill="#929cbd" stroke="#929cbd" stroke-width="1.51"/><path d="M1994,164L1975,291L2075,166Z" fill="#977487" stroke="#977487" stroke-width="1.51"/><path d="M2075,166L1975,291L2079,309Z" fill="#967a8b" stroke="#967a8b" stroke-width="1.51"/><path d="M1994,164L2075,166L2096,44Z" fill="#8e5f71" stroke="#8e5f71" stroke-width="1.51"/><path d="M2077,1128L1975,1224L2108,1236Z" fill="#16508e" stroke="#16508e" stroke-width="1.51"/><path d="M2072,-170L1979,-24L2110,-78Z" fill="#7b3a56" stroke="#7b3a56" stroke-width="1.51"/><path d="M1975,291L1980,444L2079,309Z" fill="#988da4" stroke="#988da4" stroke-width="1.51"/><path d="M1957,38L1994,164L2096,44Z" fill="#905b70" stroke="#905b70" stroke-width="1.51"/><path d="M1979,-24L1957,38L2096,44Z" fill="#8b5169" stroke="#8b5169" stroke-width="1.51"/><path d="M1949,571L2013,632L2062,613Z" fill="#899cc2" stroke="#899cc2" stroke-width="1.51"/><path d="M1940,-171L1979,-24L2072,-170Z" fill="#793e5c" stroke="#793e5c" stroke-width="1.51"/><path d="M2003,1055L1989,1111L2077,1128Z" fill="#2463a0" stroke="#2463a0" stroke-width="1.51"/><path d="M1989,1111L1975,1224L2077,1128Z" fill="#1d5c9d" stroke="#1d5c9d" stroke-width="1.51"/><path d="M1944,939L2003,1055L2079,1006Z" fill="#3272a9" stroke="#3272a9" stroke-width="1.51"/><path d="M1902,533L1949,571L1980,444Z" fill="#97a6ca" stroke="#97a6ca" stroke-width="1.51"/><path d="M1975,291L1864,398L1980,444Z" fill="#9e9ab6" stroke="#9e9ab6" stroke-width="1.51"/><path d="M1847,644L1889,788L2013,632Z" fill="#85a4ce" stroke="#85a4ce" stroke-width="1.51"/><path d="M2013,632L1889,788L2024,783Z" fill="#7898c3" stroke="#7898c3" stroke-width="1.51"/><path d="M1889,788L1944,939L2024,783Z" fill="#6291c0" stroke="#6291c0" stroke-width="1.51"/><path d="M1940,-171L1884,-147L1979,-24Z" fill="#824666" stroke="#824666" stroke-width="1.51"/><path d="M1957,38L1870,71L1994,164Z" fill="#98667d" stroke="#98667d" stroke-width="1.51"/><path d="M1863,204L1975,291L1994,164Z" fill="#9f7f93" stroke="#9f7f93" stroke-width="1.51"/><path d="M1944,939L1871,1038L2003,1055Z" fill="#3379b4" stroke="#3379b4" stroke-width="1.51"/><path d="M1949,571L1847,644L2013,632Z" fill="#8ea5ce" stroke="#8ea5ce" stroke-width="1.51"/><path d="M1715,-226L1884,-147L1940,-171Z" fill="#764968" stroke="#764968" stroke-width="1.51"/><path d="M1890,1120L1975,1224L1989,1111Z" fill="#2164a8" stroke="#2164a8" stroke-width="1.51"/><path d="M1890,1120L1989,1111L2003,1055Z" fill="#286aaa" stroke="#286aaa" stroke-width="1.51"/><path d="M1871,1038L1890,1120L2003,1055Z" fill="#2d73b3" stroke="#2d73b3" stroke-width="1.51"/><path d="M1771,1219L1573,1288L1836,1234Z" fill="#2a68a1" stroke="#2a68a1" stroke-width="1.51"/><path d="M1870,71L1863,204L1994,164Z" fill="#9e758b" stroke="#9e758b" stroke-width="1.51"/><path d="M1889,788L1837,905L1944,939Z" fill="#5d93c5" stroke="#5d93c5" stroke-width="1.51"/><path d="M1890,1120L1836,1234L1975,1224Z" fill="#2163a6" stroke="#2163a6" stroke-width="1.51"/><path d="M1833,298L1864,398L1975,291Z" fill="#a398b0" stroke="#a398b0" stroke-width="1.51"/><path d="M1884,-147L1824,-14L1979,-24Z" fill="#8e506d" stroke="#8e506d" stroke-width="1.51"/><path d="M1864,398L1902,533L1980,444Z" fill="#9da5c6" stroke="#9da5c6" stroke-width="1.51"/><path d="M1824,-14L1957,38L1979,-24Z" fill="#935974" stroke="#935974" stroke-width="1.51"/><path d="M1863,204L1833,298L1975,291Z" fill="#a38da2" stroke="#a38da2" stroke-width="1.51"/><path d="M1824,-14L1870,71L1957,38Z" fill="#986279" stroke="#986279" stroke-width="1.51"/><path d="M1837,905L1871,1038L1944,939Z" fill="#4687bd" stroke="#4687bd" stroke-width="1.51"/><path d="M1902,533L1847,644L1949,571Z" fill="#94abd2" stroke="#94abd2" stroke-width="1.51"/><path d="M1847,644L1759,806L1889,788Z" fill="#7ea7cf" stroke="#7ea7cf" stroke-width="1.51"/><path d="M1759,806L1837,905L1889,788Z" fill="#6b9fcb" stroke="#6b9fcb" stroke-width="1.51"/><path d="M1864,398L1768,527L1902,533Z" fill="#a0aecd" stroke="#a0aecd" stroke-width="1.51"/><path d="M1768,527L1847,644L1902,533Z" fill="#99b2d5" stroke="#99b2d5" stroke-width="1.51"/><path d="M532,1262L380,1280L768,1270Z" fill="#92788a" stroke="#92788a" stroke-width="1.51"/><path d="M1719,169L1863,204L1870,71Z" fill="#a37e8f" stroke="#a37e8f" stroke-width="1.51"/><path d="M1724,80L1719,169L1870,71Z" fill="#a37b89" stroke="#a37b89" stroke-width="1.51"/><path d="M1702,-83L1824,-14L1884,-147Z" fill="#93576f" stroke="#93576f" stroke-width="1.51"/><path d="M1771,1219L1836,1234L1890,1120Z" fill="#2769a9" stroke="#2769a9" stroke-width="1.51"/><path d="M1725,1115L1771,1219L1890,1120Z" fill="#2e73b3" stroke="#2e73b3" stroke-width="1.51"/><path d="M1871,1038L1725,1115L1890,1120Z" fill="#3279b6" stroke="#3279b6" stroke-width="1.51"/><path d="M1837,905L1709,1011L1871,1038Z" fill="#438abf" stroke="#438abf" stroke-width="1.51"/><path d="M1715,-226L1702,-83L1884,-147Z" fill="#82536d" stroke="#82536d" stroke-width="1.51"/><path d="M1759,806L1753,874L1837,905Z" fill="#66a0cb" stroke="#66a0cb" stroke-width="1.51"/><path d="M1768,527L1742,626L1847,644Z" fill="#98b6d7" stroke="#98b6d7" stroke-width="1.51"/><path d="M1742,626L1759,806L1847,644Z" fill="#8cb0d5" stroke="#8cb0d5" stroke-width="1.51"/><path d="M1775,279L1833,298L1863,204Z" fill="#a793a4" stroke="#a793a4" stroke-width="1.51"/><path d="M1716,388L1768,527L1864,398Z" fill="#a5b0c9" stroke="#a5b0c9" stroke-width="1.51"/><path d="M1824,-14L1724,80L1870,71Z" fill="#9d6c7f" stroke="#9d6c7f" stroke-width="1.51"/><path d="M1709,1011L1725,1115L1871,1038Z" fill="#3983bc" stroke="#3983bc" stroke-width="1.51"/><path d="M1833,298L1716,388L1864,398Z" fill="#a6a6bb" stroke="#a6a6bb" stroke-width="1.51"/><path d="M1719,169L1775,279L1863,204Z" fill="#a9909d" stroke="#a9909d" stroke-width="1.51"/><path d="M1775,279L1716,388L1833,298Z" fill="#a9a2b4" stroke="#a9a2b4" stroke-width="1.51"/><path d="M1753,874L1709,1011L1837,905Z" fill="#5697c6" stroke="#5697c6" stroke-width="1.51"/><path d="M1702,-83L1724,80L1824,-14Z" fill="#9c697b" stroke="#9c697b" stroke-width="1.51"/><path d="M1635,-152L1702,-83L1715,-226Z" fill="#875b70" stroke="#875b70" stroke-width="1.51"/><path d="M1702,-83L1628,19L1724,80Z" fill="#a1717f" stroke="#a1717f" stroke-width="1.51"/><path d="M1662,931L1709,1011L1753,874Z" fill="#569bc8" stroke="#569bc8" stroke-width="1.51"/><path d="M1742,626L1621,747L1759,806Z" fill="#88b6d7" stroke="#88b6d7" stroke-width="1.51"/><path d="M1654,558L1742,626L1768,527Z" fill="#9fbedb" stroke="#9fbedb" stroke-width="1.51"/><path d="M1716,388L1654,558L1768,527Z" fill="#a6bcd4" stroke="#a6bcd4" stroke-width="1.51"/><path d="M1719,169L1581,343L1775,279Z" fill="#aea1aa" stroke="#aea1aa" stroke-width="1.51"/><path d="M1581,343L1716,388L1775,279Z" fill="#adaebb" stroke="#adaebb" stroke-width="1.51"/><path d="M1633,395L1654,558L1716,388Z" fill="#abbdd0" stroke="#abbdd0" stroke-width="1.51"/><path d="M1606,665L1621,747L1742,626Z" fill="#96bfdc" stroke="#96bfdc" stroke-width="1.51"/><path d="M1725,1115L1631,1128L1771,1219Z" fill="#337bb7" stroke="#337bb7" stroke-width="1.51"/><path d="M1631,1128L1573,1288L1771,1219Z" fill="#3575ac" stroke="#3575ac" stroke-width="1.51"/><path d="M1581,343L1633,395L1716,388Z" fill="#b2b9c6" stroke="#b2b9c6" stroke-width="1.51"/><path d="M1605,154L1544,285L1719,169Z" fill="#b59ea1" stroke="#b59ea1" stroke-width="1.51"/><path d="M1544,285L1581,343L1719,169Z" fill="#b7a9af" stroke="#b7a9af" stroke-width="1.51"/><path d="M1621,747L1662,931L1753,874Z" fill="#6facd1" stroke="#6facd1" stroke-width="1.51"/><path d="M1621,747L1753,874L1759,806Z" fill="#76add2" stroke="#76add2" stroke-width="1.51"/><path d="M1709,1011L1615,1057L1725,1115Z" fill="#3e8abf" stroke="#3e8abf" stroke-width="1.51"/><path d="M1654,558L1606,665L1742,626Z" fill="#9dc1dc" stroke="#9dc1dc" stroke-width="1.51"/><path d="M1635,-152L1642,-98L1702,-83Z" fill="#956273" stroke="#956273" stroke-width="1.51"/><path d="M1476,-190L1635,-152L1715,-226Z" fill="#865f71" stroke="#865f71" stroke-width="1.51"/><path d="M1605,154L1719,169L1724,80Z" fill="#aa8993" stroke="#aa8993" stroke-width="1.51"/><path d="M1615,1057L1631,1128L1725,1115Z" fill="#3f88be" stroke="#3f88be" stroke-width="1.51"/><path d="M1628,19L1605,154L1724,80Z" fill="#ab838b" stroke="#ab838b" stroke-width="1.51"/><path d="M1642,-98L1628,19L1702,-83Z" fill="#9f6a79" stroke="#9f6a79" stroke-width="1.51"/><path d="M1662,931L1615,1057L1709,1011Z" fill="#4996c4" stroke="#4996c4" stroke-width="1.51"/><path d="M1522,202L1544,285L1605,154Z" fill="#bea6a7" stroke="#bea6a7" stroke-width="1.51"/><path d="M1535,50L1605,154L1628,19Z" fill="#b1878c" stroke="#b1878c" stroke-width="1.51"/><path d="M1513,1169L1573,1288L1631,1128Z" fill="#4881b6" stroke="#4881b6" stroke-width="1.51"/><path d="M1533,-53L1628,19L1642,-98Z" fill="#a6717c" stroke="#a6717c" stroke-width="1.51"/><path d="M1633,395L1453,512L1654,558Z" fill="#b5cadb" stroke="#b5cadb" stroke-width="1.51"/><path d="M1456,1033L1615,1057L1662,931Z" fill="#579dc9" stroke="#579dc9" stroke-width="1.51"/><path d="M1462,856L1456,1033L1662,931Z" fill="#71add2" stroke="#71add2" stroke-width="1.51"/><path d="M1621,747L1462,856L1662,931Z" fill="#7fb6d7" stroke="#7fb6d7" stroke-width="1.51"/><path d="M1483,378L1453,512L1633,395Z" fill="#bfcbd5" stroke="#bfcbd5" stroke-width="1.51"/><path d="M1453,512L1606,665L1654,558Z" fill="#afcde2" stroke="#afcde2" stroke-width="1.51"/><path d="M1453,512L1467,667L1606,665Z" fill="#b3d2e5" stroke="#b3d2e5" stroke-width="1.51"/><path d="M1463,771L1462,856L1621,747Z" fill="#94c3de" stroke="#94c3de" stroke-width="1.51"/><path d="M1635,-152L1533,-53L1642,-98Z" fill="#9e6977" stroke="#9e6977" stroke-width="1.51"/><path d="M1581,343L1483,378L1633,395Z" fill="#bcc0ca" stroke="#bcc0ca" stroke-width="1.51"/><path d="M1476,-190L1533,-53L1635,-152Z" fill="#9c6b77" stroke="#9c6b77" stroke-width="1.51"/><path d="M1615,1057L1513,1169L1631,1128Z" fill="#4c8cc1" stroke="#4c8cc1" stroke-width="1.51"/><path d="M1533,-53L1535,50L1628,19Z" fill="#af7d85" stroke="#af7d85" stroke-width="1.51"/><path d="M1606,665L1467,667L1621,747Z" fill="#a1c8e0" stroke="#a1c8e0" stroke-width="1.51"/><path d="M1467,667L1463,771L1621,747Z" fill="#a1c9e1" stroke="#a1c9e1" stroke-width="1.51"/><path d="M1456,1033L1513,1169L1615,1057Z" fill="#5996c6" stroke="#5996c6" stroke-width="1.51"/><path d="M1535,50L1522,202L1605,154Z" fill="#ba9799" stroke="#ba9799" stroke-width="1.51"/><path d="M1409,910L1456,1033L1462,856Z" fill="#7fb7d7" stroke="#7fb7d7" stroke-width="1.51"/><path d="M1285,1236L1155,1299L1475,1274Z" fill="#6988af" stroke="#6988af" stroke-width="1.51"/><path d="M1513,1169L1475,1274L1573,1288Z" fill="#4c7dac" stroke="#4c7dac" stroke-width="1.51"/><path d="M1544,285L1483,378L1581,343Z" fill="#c0bec2" stroke="#c0bec2" stroke-width="1.51"/><path d="M1402,102L1522,202L1535,50Z" fill="#c19a99" stroke="#c19a99" stroke-width="1.51"/><path d="M1402,102L1407,179L1522,202Z" fill="#c9a7a4" stroke="#c9a7a4" stroke-width="1.51"/><path d="M1476,-190L1424,-55L1533,-53Z" fill="#ad757d" stroke="#ad757d" stroke-width="1.51"/><path d="M1533,-53L1424,-55L1535,50Z" fill="#b58085" stroke="#b58085" stroke-width="1.51"/><path d="M1522,202L1401,276L1544,285Z" fill="#c7b5b3" stroke="#c7b5b3" stroke-width="1.51"/><path d="M1401,276L1483,378L1544,285Z" fill="#c8c0c1" stroke="#c8c0c1" stroke-width="1.51"/><path d="M896,1252L768,1270L1155,1299Z" fill="#8b94b3" stroke="#8b94b3" stroke-width="1.51"/><path d="M1456,1033L1395,1161L1513,1169Z" fill="#6399c7" stroke="#6399c7" stroke-width="1.51"/><path d="M1424,-55L1402,102L1535,50Z" fill="#bf8d8d" stroke="#bf8d8d" stroke-width="1.51"/><path d="M1453,512L1390,637L1467,667Z" fill="#bedae9" stroke="#bedae9" stroke-width="1.51"/><path d="M1395,1161L1475,1274L1513,1169Z" fill="#5a8bba" stroke="#5a8bba" stroke-width="1.51"/><path d="M1407,179L1401,276L1522,202Z" fill="#ccb3ae" stroke="#ccb3ae" stroke-width="1.51"/><path d="M1371,568L1390,637L1453,512Z" fill="#c6deec" stroke="#c6deec" stroke-width="1.51"/><path d="M1406,1026L1395,1161L1456,1033Z" fill="#6ca3cd" stroke="#6ca3cd" stroke-width="1.51"/><path d="M1409,910L1406,1026L1456,1033Z" fill="#75b0d3" stroke="#75b0d3" stroke-width="1.51"/><path d="M1387,745L1463,771L1467,667Z" fill="#acd1e5" stroke="#acd1e5" stroke-width="1.51"/><path d="M1339,1213L1285,1236L1475,1274Z" fill="#648ab4" stroke="#648ab4" stroke-width="1.51"/><path d="M1395,1161L1339,1213L1475,1274Z" fill="#628cb9" stroke="#628cb9" stroke-width="1.51"/><path d="M1359,-184L1424,-55L1476,-190Z" fill="#a9757d" stroke="#a9757d" stroke-width="1.51"/><path d="M1352,380L1453,512L1483,378Z" fill="#ccd4d9" stroke="#ccd4d9" stroke-width="1.51"/><path d="M1401,276L1352,380L1483,378Z" fill="#d0cbcb" stroke="#d0cbcb" stroke-width="1.51"/><path d="M1387,745L1462,856L1463,771Z" fill="#9fcbe1" stroke="#9fcbe1" stroke-width="1.51"/><path d="M1390,637L1387,745L1467,667Z" fill="#b7d7e9" stroke="#b7d7e9" stroke-width="1.51"/><path d="M1387,745L1409,910L1462,856Z" fill="#98c8e0" stroke="#98c8e0" stroke-width="1.51"/><path d="M1387,745L1284,825L1409,910Z" fill="#a3cde3" stroke="#a3cde3" stroke-width="1.51"/><path d="M1352,380L1371,568L1453,512Z" fill="#cedce4" stroke="#cedce4" stroke-width="1.51"/><path d="M1352,380L1272,427L1371,568Z" fill="#d7dee2" stroke="#d7dee2" stroke-width="1.51"/><path d="M1272,427L1292,558L1371,568Z" fill="#d7e4ec" stroke="#d7e4ec" stroke-width="1.51"/><path d="M1299,1104L1395,1161L1406,1026Z" fill="#72a3cd" stroke="#72a3cd" stroke-width="1.51"/><path d="M1247,934L1406,1026L1409,910Z" fill="#86b9d8" stroke="#86b9d8" stroke-width="1.51"/><path d="M1281,92L1402,102L1424,-55Z" fill="#c99592" stroke="#c99592" stroke-width="1.51"/><path d="M1239,-79L1281,92L1424,-55Z" fill="#ca8e8c" stroke="#ca8e8c" stroke-width="1.51"/><path d="M1359,-184L1272,-135L1424,-55Z" fill="#b57b80" stroke="#b57b80" stroke-width="1.51"/><path d="M1272,-135L1239,-79L1424,-55Z" fill="#c28184" stroke="#c28184" stroke-width="1.51"/><path d="M1304,343L1352,380L1401,276Z" fill="#d7cdcb" stroke="#d7cdcb" stroke-width="1.51"/><path d="M1247,934L1246,1034L1406,1026Z" fill="#85b6d7" stroke="#85b6d7" stroke-width="1.51"/><path d="M1228,184L1401,276L1407,179Z" fill="#d7b9b0" stroke="#d7b9b0" stroke-width="1.51"/><path d="M1402,102L1281,92L1407,179Z" fill="#d0a59f" stroke="#d0a59f" stroke-width="1.51"/><path d="M1284,825L1247,934L1409,910Z" fill="#9bc7df" stroke="#9bc7df" stroke-width="1.51"/><path d="M1281,92L1228,184L1407,179Z" fill="#d8aea6" stroke="#d8aea6" stroke-width="1.51"/><path d="M1228,184L1304,343L1401,276Z" fill="#dcc5bd" stroke="#dcc5bd" stroke-width="1.51"/><path d="M1246,1034L1299,1104L1406,1026Z" fill="#7cacd2" stroke="#7cacd2" stroke-width="1.51"/><path d="M1213,656L1387,745L1390,637Z" fill="#c3ddeb" stroke="#c3ddeb" stroke-width="1.51"/><path d="M1299,1104L1339,1213L1395,1161Z" fill="#709bc9" stroke="#709bc9" stroke-width="1.51"/><path d="M1371,568L1292,558L1390,637Z" fill="#cce1ed" stroke="#cce1ed" stroke-width="1.51"/><path d="M1292,558L1213,656L1390,637Z" fill="#cee3ef" stroke="#cee3ef" stroke-width="1.51"/><path d="M1213,656L1284,825L1387,745Z" fill="#bcd9ea" stroke="#bcd9ea" stroke-width="1.51"/><path d="M1151,-200L1272,-135L1359,-184Z" fill="#b17b80" stroke="#b17b80" stroke-width="1.51"/><path d="M1299,1104L1285,1236L1339,1213Z" fill="#7399c5" stroke="#7399c5" stroke-width="1.51"/><path d="M1304,343L1272,427L1352,380Z" fill="#dcd9d8" stroke="#dcd9d8" stroke-width="1.51"/><path d="M1228,184L1180,311L1304,343Z" fill="#e5ccc2" stroke="#e5ccc2" stroke-width="1.51"/><path d="M373,-223L493,-179L919,-208Z" fill="#ba685e" stroke="#ba685e" stroke-width="1.51"/><path d="M1239,-79L1156,-33L1281,92Z" fill="#d49590" stroke="#d49590" stroke-width="1.51"/><path d="M1213,656L1112,754L1284,825Z" fill="#c7e0ed" stroke="#c7e0ed" stroke-width="1.51"/><path d="M1272,427L1118,544L1292,558Z" fill="#e2e9ee" stroke="#e2e9ee" stroke-width="1.51"/><path d="M1168,1159L1285,1236L1299,1104Z" fill="#7d9fcc" stroke="#7d9fcc" stroke-width="1.51"/><path d="M1180,311L1272,427L1304,343Z" fill="#e3d9d4" stroke="#e3d9d4" stroke-width="1.51"/><path d="M1246,1034L1168,1159L1299,1104Z" fill="#84aad2" stroke="#84aad2" stroke-width="1.51"/><path d="M1156,-33L1129,102L1281,92Z" fill="#dda199" stroke="#dda199" stroke-width="1.51"/><path d="M1118,544L1213,656L1292,558Z" fill="#deebf2" stroke="#deebf2" stroke-width="1.51"/><path d="M1118,544L1126,613L1213,656Z" fill="#e0ecf3" stroke="#e0ecf3" stroke-width="1.51"/><path d="M1098,439L1118,544L1272,427Z" fill="#e9e9e9" stroke="#e9e9e9" stroke-width="1.51"/><path d="M1100,910L1247,934L1284,825Z" fill="#a9cee3" stroke="#a9cee3" stroke-width="1.51"/><path d="M1168,1159L1155,1299L1285,1236Z" fill="#7b96bd" stroke="#7b96bd" stroke-width="1.51"/><path d="M1112,754L1100,910L1284,825Z" fill="#bad9e9" stroke="#bad9e9" stroke-width="1.51"/><path d="M493,-179L658,-154L919,-208Z" fill="#c3756c" stroke="#c3756c" stroke-width="1.51"/><path d="M1154,166L1228,184L1281,92Z" fill="#e1b3a8" stroke="#e1b3a8" stroke-width="1.51"/><path d="M1129,102L1154,166L1281,92Z" fill="#e2afa4" stroke="#e2afa4" stroke-width="1.51"/><path d="M1151,-200L1239,-79L1272,-135Z" fill="#bf8184" stroke="#bf8184" stroke-width="1.51"/><path d="M1180,311L1098,439L1272,427Z" fill="#eae1dd" stroke="#eae1dd" stroke-width="1.51"/><path d="M658,-154L791,-166L919,-208Z" fill="#c67c76" stroke="#c67c76" stroke-width="1.51"/><path d="M1154,166L1180,311L1228,184Z" fill="#e9c4b7" stroke="#e9c4b7" stroke-width="1.51"/><path d="M1151,-200L1156,-33L1239,-79Z" fill="#cb8787" stroke="#cb8787" stroke-width="1.51"/><path d="M1161,1021L1168,1159L1246,1034Z" fill="#8cb1d5" stroke="#8cb1d5" stroke-width="1.51"/><path d="M1161,1021L1246,1034L1247,934Z" fill="#90bcda" stroke="#90bcda" stroke-width="1.51"/><path d="M1100,910L1161,1021L1247,934Z" fill="#9fc5df" stroke="#9fc5df" stroke-width="1.51"/><path d="M1126,613L1112,754L1213,656Z" fill="#d8e8f1" stroke="#d8e8f1" stroke-width="1.51"/><path d="M919,-208L990,-158L1151,-200Z" fill="#bf8384" stroke="#bf8384" stroke-width="1.51"/><path d="M990,-158L1003,-68L1151,-200Z" fill="#c98786" stroke="#c98786" stroke-width="1.51"/><path d="M1024,188L1060,329L1154,166Z" fill="#f1caba" stroke="#f1caba" stroke-width="1.51"/><path d="M1151,-200L1003,-68L1156,-33Z" fill="#d28a88" stroke="#d28a88" stroke-width="1.51"/><path d="M1058,1213L1155,1299L1168,1159Z" fill="#839abf" stroke="#839abf" stroke-width="1.51"/><path d="M1161,1021L1061,1066L1168,1159Z" fill="#91b2d5" stroke="#91b2d5" stroke-width="1.51"/><path d="M1154,166L1060,329L1180,311Z" fill="#eecfc2" stroke="#eecfc2" stroke-width="1.51"/><path d="M1060,329L1098,439L1180,311Z" fill="#efe0d7" stroke="#efe0d7" stroke-width="1.51"/><path d="M1058,1213L896,1252L1155,1299Z" fill="#8696b9" stroke="#8696b9" stroke-width="1.51"/><path d="M1020,97L1129,102L1156,-33Z" fill="#e3a49a" stroke="#e3a49a" stroke-width="1.51"/><path d="M1061,1066L1058,1213L1168,1159Z" fill="#8fa9d1" stroke="#8fa9d1" stroke-width="1.51"/><path d="M1044,617L1112,754L1126,613Z" fill="#deebf3" stroke="#deebf3" stroke-width="1.51"/><path d="M1003,-68L1020,97L1156,-33Z" fill="#e19c94" stroke="#e19c94" stroke-width="1.51"/><path d="M1100,910L1061,1066L1161,1021Z" fill="#9bc0dc" stroke="#9bc0dc" stroke-width="1.51"/><path d="M1129,102L1024,188L1154,166Z" fill="#eab8ac" stroke="#eab8ac" stroke-width="1.51"/><path d="M1017,1094L1058,1213L1061,1066Z" fill="#95aed4" stroke="#95aed4" stroke-width="1.51"/><path d="M1027,908L1100,910L1112,754Z" fill="#bbd8e9" stroke="#bbd8e9" stroke-width="1.51"/><path d="M1027,908L1061,1066L1100,910Z" fill="#a6c8e0" stroke="#a6c8e0" stroke-width="1.51"/><path d="M974,816L1027,908L1112,754Z" fill="#c5ddeb" stroke="#c5ddeb" stroke-width="1.51"/><path d="M1098,439L1045,542L1118,544Z" fill="#eeeff0" stroke="#eeeff0" stroke-width="1.51"/><path d="M1045,542L1044,617L1118,544Z" fill="#ebf1f5" stroke="#ebf1f5" stroke-width="1.51"/><path d="M1118,544L1044,617L1126,613Z" fill="#e7eff4" stroke="#e7eff4" stroke-width="1.51"/><path d="M1020,97L1024,188L1129,102Z" fill="#ecb5a8" stroke="#ecb5a8" stroke-width="1.51"/><path d="M1060,329L996,395L1098,439Z" fill="#f4e6de" stroke="#f4e6de" stroke-width="1.51"/><path d="M1044,617L974,816L1112,754Z" fill="#d7e7f1" stroke="#d7e7f1" stroke-width="1.51"/><path d="M916,667L974,816L1044,617Z" fill="#e2edf3" stroke="#e2edf3" stroke-width="1.51"/><path d="M996,395L1045,542L1098,439Z" fill="#f2ede9" stroke="#f2ede9" stroke-width="1.51"/><path d="M1003,-68L924,-29L1020,97Z" fill="#e79f95" stroke="#e79f95" stroke-width="1.51"/><path d="M924,-29L911,42L1020,97Z" fill="#eba599" stroke="#eba599" stroke-width="1.51"/><path d="M893,1040L1017,1094L1027,908Z" fill="#a3c2dc" stroke="#a3c2dc" stroke-width="1.51"/><path d="M892,929L893,1040L1027,908Z" fill="#b0cadf" stroke="#b0cadf" stroke-width="1.51"/><path d="M1017,1094L915,1133L1058,1213Z" fill="#97add3" stroke="#97add3" stroke-width="1.51"/><path d="M1024,188L920,293L1060,329Z" fill="#f7d4c4" stroke="#f7d4c4" stroke-width="1.51"/><path d="M1027,908L1017,1094L1061,1066Z" fill="#9dbfdb" stroke="#9dbfdb" stroke-width="1.51"/><path d="M920,293L996,395L1060,329Z" fill="#f8e0d4" stroke="#f8e0d4" stroke-width="1.51"/><path d="M996,395L927,391L1045,542Z" fill="#f7ede7" stroke="#f7ede7" stroke-width="1.51"/><path d="M915,1133L896,1252L1058,1213Z" fill="#94a4c8" stroke="#94a4c8" stroke-width="1.51"/><path d="M860,564L916,667L1044,617Z" fill="#eff1f4" stroke="#eff1f4" stroke-width="1.51"/><path d="M927,391L860,564L1045,542Z" fill="#f9f2ef" stroke="#f9f2ef" stroke-width="1.51"/><path d="M860,564L1044,617L1045,542Z" fill="#f1f4f6" stroke="#f1f4f6" stroke-width="1.51"/><path d="M916,667L912,805L974,816Z" fill="#d8e5ed" stroke="#d8e5ed" stroke-width="1.51"/><path d="M920,293L927,391L996,395Z" fill="#fbe4d8" stroke="#fbe4d8" stroke-width="1.51"/><path d="M911,42L856,216L1020,97Z" fill="#f2b4a4" stroke="#f2b4a4" stroke-width="1.51"/><path d="M1020,97L856,216L1024,188Z" fill="#f5c0b0" stroke="#f5c0b0" stroke-width="1.51"/><path d="M974,816L892,929L1027,908Z" fill="#bed8e8" stroke="#bed8e8" stroke-width="1.51"/><path d="M856,216L920,293L1024,188Z" fill="#f9cdba" stroke="#f9cdba" stroke-width="1.51"/><path d="M893,1040L915,1133L1017,1094Z" fill="#a0b6d5" stroke="#a0b6d5" stroke-width="1.51"/><path d="M990,-158L924,-29L1003,-68Z" fill="#de908a" stroke="#de908a" stroke-width="1.51"/><path d="M-144,-194L-45,-177L373,-223Z" fill="#9a1c2a" stroke="#9a1c2a" stroke-width="1.51"/><path d="M346,1275L25,1306L380,1280Z" fill="#854f61" stroke="#854f61" stroke-width="1.51"/><path d="M912,805L892,929L974,816Z" fill="#c7dce7" stroke="#c7dce7" stroke-width="1.51"/><path d="M919,-208L924,-29L990,-158Z" fill="#d28a86" stroke="#d28a86" stroke-width="1.51"/><path d="M919,-208L806,-93L924,-29Z" fill="#d88982" stroke="#d88982" stroke-width="1.51"/><path d="M799,45L856,216L911,42Z" fill="#f0ac9a" stroke="#f0ac9a" stroke-width="1.51"/><path d="M796,855L892,929L912,805Z" fill="#c6d6e0" stroke="#c6d6e0" stroke-width="1.51"/><path d="M757,1144L896,1252L915,1133Z" fill="#9aa3c5" stroke="#9aa3c5" stroke-width="1.51"/><path d="M782,774L912,805L916,667Z" fill="#dce3e8" stroke="#dce3e8" stroke-width="1.51"/><path d="M791,-166L806,-93L919,-208Z" fill="#cc827c" stroke="#cc827c" stroke-width="1.51"/><path d="M799,45L911,42L924,-29Z" fill="#e99e90" stroke="#e99e90" stroke-width="1.51"/><path d="M920,293L777,255L927,391Z" fill="#fbd7c6" stroke="#fbd7c6" stroke-width="1.51"/><path d="M777,255L753,447L927,391Z" fill="#fcddcc" stroke="#fcddcc" stroke-width="1.51"/><path d="M753,447L860,564L927,391Z" fill="#fbeae0" stroke="#fbeae0" stroke-width="1.51"/><path d="M806,-93L799,45L924,-29Z" fill="#e59486" stroke="#e59486" stroke-width="1.51"/><path d="M893,1040L757,1144L915,1133Z" fill="#a1afcc" stroke="#a1afcc" stroke-width="1.51"/><path d="M856,216L777,255L920,293Z" fill="#faccb7" stroke="#faccb7" stroke-width="1.51"/><path d="M892,929L762,977L893,1040Z" fill="#afc2d5" stroke="#afc2d5" stroke-width="1.51"/><path d="M860,564L735,613L916,667Z" fill="#f0ece9" stroke="#f0ece9" stroke-width="1.51"/><path d="M735,613L782,774L916,667Z" fill="#e8e6e5" stroke="#e8e6e5" stroke-width="1.51"/><path d="M782,774L796,855L912,805Z" fill="#d1dbe0" stroke="#d1dbe0" stroke-width="1.51"/><path d="M757,1144L768,1270L896,1252Z" fill="#9697b4" stroke="#9697b4" stroke-width="1.51"/><path d="M799,45L748,191L856,216Z" fill="#f4b49e" stroke="#f4b49e" stroke-width="1.51"/><path d="M753,447L739,509L860,564Z" fill="#fbe9e0" stroke="#fbe9e0" stroke-width="1.51"/><path d="M628,1237L532,1262L768,1270Z" fill="#948499" stroke="#948499" stroke-width="1.51"/><path d="M762,977L757,1144L893,1040Z" fill="#a7b4cb" stroke="#a7b4cb" stroke-width="1.51"/><path d="M703,401L753,447L777,255Z" fill="#fdd9c6" stroke="#fdd9c6" stroke-width="1.51"/><path d="M796,855L762,977L892,929Z" fill="#bccad6" stroke="#bccad6" stroke-width="1.51"/><path d="M739,509L735,613L860,564Z" fill="#f8ebe4" stroke="#f8ebe4" stroke-width="1.51"/><path d="M748,191L777,255L856,216Z" fill="#fac3aa" stroke="#fac3aa" stroke-width="1.51"/><path d="M631,1013L757,1144L762,977Z" fill="#aab0c3" stroke="#aab0c3" stroke-width="1.51"/><path d="M735,613L674,700L782,774Z" fill="#e9e1dc" stroke="#e9e1dc" stroke-width="1.51"/><path d="M665,858L762,977L796,855Z" fill="#c3c9d1" stroke="#c3c9d1" stroke-width="1.51"/><path d="M689,164L748,191L799,45Z" fill="#f3ad95" stroke="#f3ad95" stroke-width="1.51"/><path d="M645,52L689,164L799,45Z" fill="#eea189" stroke="#eea189" stroke-width="1.51"/><path d="M791,-166L658,-154L806,-93Z" fill="#d07f74" stroke="#d07f74" stroke-width="1.51"/><path d="M658,-154L647,-26L806,-93Z" fill="#db8071" stroke="#db8071" stroke-width="1.51"/><path d="M647,-26L799,45L806,-93Z" fill="#e48f7e" stroke="#e48f7e" stroke-width="1.51"/><path d="M635,330L703,401L777,255Z" fill="#fcd0b8" stroke="#fcd0b8" stroke-width="1.51"/><path d="M782,774L665,858L796,855Z" fill="#d0d4d7" stroke="#d0d4d7" stroke-width="1.51"/><path d="M647,-26L645,52L799,45Z" fill="#e8937e" stroke="#e8937e" stroke-width="1.51"/><path d="M757,1144L628,1237L768,1270Z" fill="#9993ad" stroke="#9993ad" stroke-width="1.51"/><path d="M674,700L661,745L782,774Z" fill="#e1dad7" stroke="#e1dad7" stroke-width="1.51"/><path d="M633,1160L628,1237L757,1144Z" fill="#9e95b0" stroke="#9e95b0" stroke-width="1.51"/><path d="M661,745L665,858L782,774Z" fill="#d7d4d4" stroke="#d7d4d4" stroke-width="1.51"/><path d="M631,1013L633,1160L757,1144Z" fill="#a5a2b8" stroke="#a5a2b8" stroke-width="1.51"/><path d="M748,191L635,330L777,255Z" fill="#fbc5ab" stroke="#fbc5ab" stroke-width="1.51"/><path d="M689,164L635,330L748,191Z" fill="#f9bca0" stroke="#f9bca0" stroke-width="1.51"/><path d="M665,858L631,1013L762,977Z" fill="#b9bcc6" stroke="#b9bcc6" stroke-width="1.51"/><path d="M661,497L735,613L739,509Z" fill="#fbe8de" stroke="#fbe8de" stroke-width="1.51"/><path d="M661,497L739,509L753,447Z" fill="#fce3d6" stroke="#fce3d6" stroke-width="1.51"/><path d="M703,401L661,497L753,447Z" fill="#fcdfcf" stroke="#fcdfcf" stroke-width="1.51"/><path d="M571,276L635,330L689,164Z" fill="#f9bb9d" stroke="#f9bb9d" stroke-width="1.51"/><path d="M555,554L674,700L735,613Z" fill="#f2ddd3" stroke="#f2ddd3" stroke-width="1.51"/><path d="M661,497L555,554L735,613Z" fill="#f9e0d4" stroke="#f9e0d4" stroke-width="1.51"/><path d="M555,554L544,692L674,700Z" fill="#eed4c9" stroke="#eed4c9" stroke-width="1.51"/><path d="M635,330L661,497L703,401Z" fill="#fcd7c3" stroke="#fcd7c3" stroke-width="1.51"/><path d="M631,1013L570,1145L633,1160Z" fill="#a69baf" stroke="#a69baf" stroke-width="1.51"/><path d="M635,330L513,436L661,497Z" fill="#fcd1bb" stroke="#fcd1bb" stroke-width="1.51"/><path d="M500,922L631,1013L665,858Z" fill="#bdb6bb" stroke="#bdb6bb" stroke-width="1.51"/><path d="M645,52L495,201L689,164Z" fill="#f0a084" stroke="#f0a084" stroke-width="1.51"/><path d="M495,201L571,276L689,164Z" fill="#f6ae8e" stroke="#f6ae8e" stroke-width="1.51"/><path d="M537,33L495,201L645,52Z" fill="#eb9176" stroke="#eb9176" stroke-width="1.51"/><path d="M544,-21L647,-26L658,-154Z" fill="#dc7a69" stroke="#dc7a69" stroke-width="1.51"/><path d="M661,745L508,762L665,858Z" fill="#d8cbc6" stroke="#d8cbc6" stroke-width="1.51"/><path d="M544,692L661,745L674,700Z" fill="#e6d4cd" stroke="#e6d4cd" stroke-width="1.51"/><path d="M493,-179L544,-21L658,-154Z" fill="#cf6d5e" stroke="#cf6d5e" stroke-width="1.51"/><path d="M508,762L500,922L665,858Z" fill="#cebfbc" stroke="#cebfbc" stroke-width="1.51"/><path d="M513,436L555,554L661,497Z" fill="#fbd5c3" stroke="#fbd5c3" stroke-width="1.51"/><path d="M544,692L508,762L661,745Z" fill="#e3cbc4" stroke="#e3cbc4" stroke-width="1.51"/><path d="M544,-21L537,33L645,52Z" fill="#e4846e" stroke="#e4846e" stroke-width="1.51"/><path d="M544,-21L645,52L647,-26Z" fill="#e38670" stroke="#e38670" stroke-width="1.51"/><path d="M500,922L494,1001L631,1013Z" fill="#b4a8ae" stroke="#b4a8ae" stroke-width="1.51"/><path d="M570,1145L628,1237L633,1160Z" fill="#9f8fa7" stroke="#9f8fa7" stroke-width="1.51"/><path d="M494,1001L570,1145L631,1013Z" fill="#ab9fac" stroke="#ab9fac" stroke-width="1.51"/><path d="M571,276L513,436L635,330Z" fill="#fbc4a9" stroke="#fbc4a9" stroke-width="1.51"/><path d="M570,1145L532,1262L628,1237Z" fill="#9a859a" stroke="#9a859a" stroke-width="1.51"/><path d="M441,808L500,922L508,762Z" fill="#d1b8b1" stroke="#d1b8b1" stroke-width="1.51"/><path d="M399,99L495,201L537,33Z" fill="#e98b6d" stroke="#e98b6d" stroke-width="1.51"/><path d="M493,-179L416,-39L544,-21Z" fill="#d66855" stroke="#d66855" stroke-width="1.51"/><path d="M513,436L466,465L555,554Z" fill="#faccb8" stroke="#faccb8" stroke-width="1.51"/><path d="M430,627L544,692L555,554Z" fill="#f1cdbe" stroke="#f1cdbe" stroke-width="1.51"/><path d="M407,1125L532,1262L570,1145Z" fill="#a08498" stroke="#a08498" stroke-width="1.51"/><path d="M494,1001L407,1125L570,1145Z" fill="#a8919f" stroke="#a8919f" stroke-width="1.51"/><path d="M424,322L513,436L571,276Z" fill="#f9bb9e" stroke="#f9bb9e" stroke-width="1.51"/><path d="M495,201L424,322L571,276Z" fill="#f6ae8d" stroke="#f6ae8d" stroke-width="1.51"/><path d="M466,465L430,627L555,554Z" fill="#f8cebc" stroke="#f8cebc" stroke-width="1.51"/><path d="M407,1125L380,1280L532,1262Z" fill="#977486" stroke="#977486" stroke-width="1.51"/><path d="M430,627L508,762L544,692Z" fill="#e9c7ba" stroke="#e9c7ba" stroke-width="1.51"/><path d="M416,-39L537,33L544,-21Z" fill="#de7760" stroke="#de7760" stroke-width="1.51"/><path d="M374,559L430,627L466,465Z" fill="#f6c5b4" stroke="#f6c5b4" stroke-width="1.51"/><path d="M416,-39L399,99L537,33Z" fill="#e0785f" stroke="#e0785f" stroke-width="1.51"/><path d="M-45,-177L194,-142L373,-223Z" fill="#a72f33" stroke="#a72f33" stroke-width="1.51"/><path d="M375,1028L407,1125L494,1001Z" fill="#aa8f9a" stroke="#aa8f9a" stroke-width="1.51"/><path d="M399,99L397,182L495,201Z" fill="#eb9071" stroke="#eb9071" stroke-width="1.51"/><path d="M441,808L394,886L500,922Z" fill="#c8adaa" stroke="#c8adaa" stroke-width="1.51"/><path d="M430,627L441,808L508,762Z" fill="#e2beb4" stroke="#e2beb4" stroke-width="1.51"/><path d="M424,322L466,465L513,436Z" fill="#f9c0a6" stroke="#f9c0a6" stroke-width="1.51"/><path d="M397,182L424,322L495,201Z" fill="#f2a07f" stroke="#f2a07f" stroke-width="1.51"/><path d="M424,322L345,386L466,465Z" fill="#f6b79d" stroke="#f6b79d" stroke-width="1.51"/><path d="M373,-223L416,-39L493,-179Z" fill="#c1594c" stroke="#c1594c" stroke-width="1.51"/><path d="M394,886L375,1028L494,1001Z" fill="#b49a9f" stroke="#b49a9f" stroke-width="1.51"/><path d="M394,886L494,1001L500,922Z" fill="#bca6a7" stroke="#bca6a7" stroke-width="1.51"/><path d="M430,627L317,663L441,808Z" fill="#e4b9ae" stroke="#e4b9ae" stroke-width="1.51"/><path d="M373,-223L281,-150L416,-39Z" fill="#bf4f45" stroke="#bf4f45" stroke-width="1.51"/><path d="M317,663L305,789L441,808Z" fill="#d9aea6" stroke="#d9aea6" stroke-width="1.51"/><path d="M345,386L374,559L466,465Z" fill="#f6bba7" stroke="#f6bba7" stroke-width="1.51"/><path d="M149,1239L25,1306L346,1275Z" fill="#83495f" stroke="#83495f" stroke-width="1.51"/><path d="M319,1003L375,1028L394,886Z" fill="#b29398" stroke="#b29398" stroke-width="1.51"/><path d="M346,1275L380,1280L407,1125Z" fill="#956b7e" stroke="#956b7e" stroke-width="1.51"/><path d="M292,54L399,99L416,-39Z" fill="#db6d57" stroke="#db6d57" stroke-width="1.51"/><path d="M397,182L270,310L424,322Z" fill="#f09c7e" stroke="#f09c7e" stroke-width="1.51"/><path d="M305,789L394,886L441,808Z" fill="#ceaba5" stroke="#ceaba5" stroke-width="1.51"/><path d="M-45,-177L69,-136L194,-142Z" fill="#a7222d" stroke="#a7222d" stroke-width="1.51"/><path d="M287,1132L346,1275L407,1125Z" fill="#9b7086" stroke="#9b7086" stroke-width="1.51"/><path d="M281,-150L292,-28L416,-39Z" fill="#cc5246" stroke="#cc5246" stroke-width="1.51"/><path d="M292,-28L292,54L416,-39Z" fill="#d4604e" stroke="#d4604e" stroke-width="1.51"/><path d="M374,559L317,663L430,627Z" fill="#edbbad" stroke="#edbbad" stroke-width="1.51"/><path d="M345,386L287,555L374,559Z" fill="#f3b6a4" stroke="#f3b6a4" stroke-width="1.51"/><path d="M270,310L345,386L424,322Z" fill="#f1a68b" stroke="#f1a68b" stroke-width="1.51"/><path d="M260,904L319,1003L394,886Z" fill="#b89497" stroke="#b89497" stroke-width="1.51"/><path d="M255,144L397,182L399,99Z" fill="#e47f64" stroke="#e47f64" stroke-width="1.51"/><path d="M375,1028L287,1132L407,1125Z" fill="#a37f8f" stroke="#a37f8f" stroke-width="1.51"/><path d="M194,-142L281,-150L373,-223Z" fill="#b1413c" stroke="#b1413c" stroke-width="1.51"/><path d="M255,144L270,310L397,182Z" fill="#e8896b" stroke="#e8896b" stroke-width="1.51"/><path d="M292,54L255,144L399,99Z" fill="#de7159" stroke="#de7159" stroke-width="1.51"/><path d="M305,789L260,904L394,886Z" fill="#c69e9c" stroke="#c69e9c" stroke-width="1.51"/><path d="M213,494L287,555L345,386Z" fill="#f1ac9a" stroke="#f1ac9a" stroke-width="1.51"/><path d="M287,555L317,663L374,559Z" fill="#edb5a8" stroke="#edb5a8" stroke-width="1.51"/><path d="M319,1003L287,1132L375,1028Z" fill="#a6818e" stroke="#a6818e" stroke-width="1.51"/><path d="M255,144L203,182L270,310Z" fill="#e48065" stroke="#e48065" stroke-width="1.51"/><path d="M224,1050L287,1132L319,1003Z" fill="#a37988" stroke="#a37988" stroke-width="1.51"/><path d="M270,310L213,494L345,386Z" fill="#f0a48e" stroke="#f0a48e" stroke-width="1.51"/><path d="M287,1132L149,1239L346,1275Z" fill="#925e73" stroke="#925e73" stroke-width="1.51"/><path d="M210,1116L149,1239L287,1132Z" fill="#97627b" stroke="#97627b" stroke-width="1.51"/><path d="M287,555L159,660L317,663Z" fill="#e6a99e" stroke="#e6a99e" stroke-width="1.51"/><path d="M152,745L305,789L317,663Z" fill="#d9a39c" stroke="#d9a39c" stroke-width="1.51"/><path d="M159,660L152,745L317,663Z" fill="#dea198" stroke="#dea198" stroke-width="1.51"/><path d="M260,904L224,1050L319,1003Z" fill="#ac848c" stroke="#ac848c" stroke-width="1.51"/><path d="M140,457L213,494L270,310Z" fill="#ec9d8a" stroke="#ec9d8a" stroke-width="1.51"/><path d="M281,-150L194,-142L292,-28Z" fill="#c0423c" stroke="#c0423c" stroke-width="1.51"/><path d="M143,319L140,457L270,310Z" fill="#e9947f" stroke="#e9947f" stroke-width="1.51"/><path d="M224,1050L210,1116L287,1132Z" fill="#9f6e82" stroke="#9f6e82" stroke-width="1.51"/><path d="M163,864L260,904L305,789Z" fill="#c49694" stroke="#c49694" stroke-width="1.51"/><path d="M152,745L163,864L305,789Z" fill="#cb9793" stroke="#cb9793" stroke-width="1.51"/><path d="M194,-142L138,-57L292,-28Z" fill="#c33e3a" stroke="#c33e3a" stroke-width="1.51"/><path d="M138,-57L150,31L292,-28Z" fill="#c9483f" stroke="#c9483f" stroke-width="1.51"/><path d="M292,-28L150,31L292,54Z" fill="#d15647" stroke="#d15647" stroke-width="1.51"/><path d="M150,31L255,144L292,54Z" fill="#d6604d" stroke="#d6604d" stroke-width="1.51"/><path d="M213,494L159,660L287,555Z" fill="#eaa89c" stroke="#eaa89c" stroke-width="1.51"/><path d="M203,182L143,319L270,310Z" fill="#e6866d" stroke="#e6866d" stroke-width="1.51"/><path d="M163,864L224,1050L260,904Z" fill="#b2858a" stroke="#b2858a" stroke-width="1.51"/><path d="M150,31L203,182L255,144Z" fill="#d96651" stroke="#d96651" stroke-width="1.51"/><path d="M64,214L143,319L203,182Z" fill="#df7961" stroke="#df7961" stroke-width="1.51"/><path d="M88,505L159,660L213,494Z" fill="#e8a196" stroke="#e8a196" stroke-width="1.51"/><path d="M17,994L210,1116L224,1050Z" fill="#9e6c7d" stroke="#9e6c7d" stroke-width="1.51"/><path d="M163,864L17,994L224,1050Z" fill="#a97782" stroke="#a97782" stroke-width="1.51"/><path d="M150,31L64,214L203,182Z" fill="#d66451" stroke="#d66451" stroke-width="1.51"/><path d="M14,1177L149,1239L210,1116Z" fill="#905570" stroke="#905570" stroke-width="1.51"/><path d="M17,994L14,1177L210,1116Z" fill="#965e75" stroke="#965e75" stroke-width="1.51"/><path d="M140,457L88,505L213,494Z" fill="#e89c8e" stroke="#e89c8e" stroke-width="1.51"/><path d="M85,23L64,214L150,31Z" fill="#ce5246" stroke="#ce5246" stroke-width="1.51"/><path d="M50,862L17,994L163,864Z" fill="#b17a82" stroke="#b17a82" stroke-width="1.51"/><path d="M90,-93L138,-57L194,-142Z" fill="#b93234" stroke="#b93234" stroke-width="1.51"/><path d="M69,-136L90,-93L194,-142Z" fill="#b12b31" stroke="#b12b31" stroke-width="1.51"/><path d="M43,377L140,457L143,319Z" fill="#e58f7d" stroke="#e58f7d" stroke-width="1.51"/><path d="M138,-57L85,23L150,31Z" fill="#c5433c" stroke="#c5433c" stroke-width="1.51"/><path d="M88,505L32,645L159,660Z" fill="#df9891" stroke="#df9891" stroke-width="1.51"/><path d="M69,765L152,745L159,660Z" fill="#d39490" stroke="#d39490" stroke-width="1.51"/><path d="M32,645L69,765L159,660Z" fill="#d5938e" stroke="#d5938e" stroke-width="1.51"/><path d="M152,745L69,765L163,864Z" fill="#c88e8d" stroke="#c88e8d" stroke-width="1.51"/><path d="M69,765L50,862L163,864Z" fill="#bf8789" stroke="#bf8789" stroke-width="1.51"/><path d="M64,214L15,297L143,319Z" fill="#dd7864" stroke="#dd7864" stroke-width="1.51"/><path d="M14,1177L25,1306L149,1239Z" fill="#83435d" stroke="#83435d" stroke-width="1.51"/><path d="M-47,165L64,214L85,23Z" fill="#ce5548" stroke="#ce5548" stroke-width="1.51"/><path d="M15,297L43,377L143,319Z" fill="#df816e" stroke="#df816e" stroke-width="1.51"/><path d="M90,-93L85,23L138,-57Z" fill="#bf3736" stroke="#bf3736" stroke-width="1.51"/><path d="M43,377L88,505L140,457Z" fill="#e59384" stroke="#e59384" stroke-width="1.51"/><path d="M-43,40L-47,165L85,23Z" fill="#c4423c" stroke="#c4423c" stroke-width="1.51"/><path d="M43,377L-68,440L88,505Z" fill="#e08a7e" stroke="#e08a7e" stroke-width="1.51"/><path d="M-18,575L32,645L88,505Z" fill="#de928c" stroke="#de928c" stroke-width="1.51"/><path d="M-30,-26L85,23L90,-93Z" fill="#bc3034" stroke="#bc3034" stroke-width="1.51"/><path d="M69,-136L-30,-26L90,-93Z" fill="#b5222e" stroke="#b5222e" stroke-width="1.51"/><path d="M-68,440L-18,575L88,505Z" fill="#e08d86" stroke="#e08d86" stroke-width="1.51"/><path d="M-30,-26L-43,40L85,23Z" fill="#be3536" stroke="#be3536" stroke-width="1.51"/><path d="M-97,1160L14,1177L17,994Z" fill="#8d516c" stroke="#8d516c" stroke-width="1.51"/><path d="M14,1177L-65,1244L25,1306Z" fill="#7d3b58" stroke="#7d3b58" stroke-width="1.51"/><path d="M-16,631L-48,793L32,645Z" fill="#cf8887" stroke="#cf8887" stroke-width="1.51"/><path d="M-48,793L50,862L69,765Z" fill="#bf8183" stroke="#bf8183" stroke-width="1.51"/><path d="M32,645L-48,793L69,765Z" fill="#cb8787" stroke="#cb8787" stroke-width="1.51"/><path d="M-45,-177L-30,-26L69,-136Z" fill="#aa162a" stroke="#aa162a" stroke-width="1.51"/><path d="M-102,906L17,994L50,862Z" fill="#a76f79" stroke="#a76f79" stroke-width="1.51"/><path d="M-47,165L15,297L64,214Z" fill="#d66754" stroke="#d66754" stroke-width="1.51"/><path d="M-102,906L-80,983L17,994Z" fill="#986675" stroke="#986675" stroke-width="1.51"/><path d="M-80,983L-97,1160L17,994Z" fill="#8d5a6f" stroke="#8d5a6f" stroke-width="1.51"/><path d="M-18,575L-16,631L32,645Z" fill="#d88c89" stroke="#d88c89" stroke-width="1.51"/><path d="M-48,793L-102,906L50,862Z" fill="#b0787e" stroke="#b0787e" stroke-width="1.51"/><path d="M15,297L-67,328L43,377Z" fill="#db7a6a" stroke="#db7a6a" stroke-width="1.51"/><path d="M-67,328L-68,440L43,377Z" fill="#d88073" stroke="#d88073" stroke-width="1.51"/><path d="M-65,1244L-155,1270L25,1306Z" fill="#6f324f" stroke="#6f324f" stroke-width="1.51"/><path d="M-47,165L-67,328L15,297Z" fill="#d16b5a" stroke="#d16b5a" stroke-width="1.51"/><path d="M-97,1160L-65,1244L14,1177Z" fill="#7e4261" stroke="#7e4261" stroke-width="1.51"/><path d="M-174,662L-48,793L-16,631Z" fill="#c18384" stroke="#c18384" stroke-width="1.51"/><path d="M-142,33L-47,165L-43,40Z" fill="#b83e3a" stroke="#b83e3a" stroke-width="1.51"/><path d="M-45,-177L-160,-56L-30,-26Z" fill="#a51429" stroke="#a51429" stroke-width="1.51"/><path d="M-68,440L-155,522L-18,575Z" fill="#d18883" stroke="#d18883" stroke-width="1.51"/><path d="M-155,522L-174,662L-18,575Z" fill="#c68685" stroke="#c68685" stroke-width="1.51"/><path d="M-18,575L-174,662L-16,631Z" fill="#cb8786" stroke="#cb8786" stroke-width="1.51"/><path d="M-184,326L-67,328L-47,165Z" fill="#c7685b" stroke="#c7685b" stroke-width="1.51"/><path d="M-215,1039L-97,1160L-80,983Z" fill="#7e526c" stroke="#7e526c" stroke-width="1.51"/><path d="M-174,662L-143,812L-48,793Z" fill="#b07b80" stroke="#b07b80" stroke-width="1.51"/><path d="M-143,812L-102,906L-48,793Z" fill="#a8757d" stroke="#a8757d" stroke-width="1.51"/><path d="M-144,-194L-160,-56L-45,-177Z" fill="#910d26" stroke="#910d26" stroke-width="1.51"/><path d="M-142,33L-43,40L-30,-26Z" fill="#b23134" stroke="#b23134" stroke-width="1.51"/><path d="M-160,-56L-142,33L-30,-26Z" fill="#a8272f" stroke="#a8272f" stroke-width="1.51"/><path d="M-142,33L-226,144L-47,165Z" fill="#b2443e" stroke="#b2443e" stroke-width="1.51"/><path d="M-226,144L-184,326L-47,165Z" fill="#ba5a4e" stroke="#ba5a4e" stroke-width="1.51"/><path d="M-184,326L-68,440L-67,328Z" fill="#ca786d" stroke="#ca786d" stroke-width="1.51"/><path d="M-143,812L-145,890L-102,906Z" fill="#9c6f7a" stroke="#9c6f7a" stroke-width="1.51"/><path d="M-215,1039L-144,1178L-97,1160Z" fill="#754767" stroke="#754767" stroke-width="1.51"/><path d="M-184,326L-226,434L-68,440Z" fill="#c27971" stroke="#c27971" stroke-width="1.51"/><path d="M-97,1160L-144,1178L-65,1244Z" fill="#753f5f" stroke="#753f5f" stroke-width="1.51"/><path d="M-144,1178L-155,1270L-65,1244Z" fill="#6c3756" stroke="#6c3756" stroke-width="1.51"/><path d="M-226,434L-155,522L-68,440Z" fill="#c47f7b" stroke="#c47f7b" stroke-width="1.51"/><path d="M-102,906L-145,890L-80,983Z" fill="#956876" stroke="#956876" stroke-width="1.51"/><path d="M-145,890L-215,1039L-80,983Z" fill="#875f71" stroke="#875f71" stroke-width="1.51"/><path d="M-215,1039L-145,890L-143,812Z" fill="#8d6675" stroke="#8d6675" stroke-width="1.51"/><path d="M-160,-56L-226,144L-142,33Z" fill="#a43134" stroke="#a43134" stroke-width="1.51"/><path d="M-215,1039L-155,1270L-144,1178Z" fill="#6e4064" stroke="#6e4064" stroke-width="1.51"/><path d="M-174,662L-215,1039L-143,812Z" fill="#996f7a" stroke="#996f7a" stroke-width="1.51"/><path d="M-226,144L-160,-56L-144,-194Z" fill="#9b1e2b" stroke="#9b1e2b" stroke-width="1.51"/><path d="M-226,434L-174,662L-155,522Z" fill="#bf8384" stroke="#bf8384" stroke-width="1.51"/><path d="M-226,434L-215,1039L-174,662Z" fill="#a8797f" stroke="#a8797f" stroke-width="1.51"/><path d="M-226,144L-226,434L-184,326Z" fill="#b5665d" stroke="#b5665d" stroke-width="1.51"/></svg>